<?xml version="1.0" encoding="utf-8"?>
<!-- Generator: Adobe Illustrator 16.0.0, SVG Export Plug-In . SVG Version: 6.00 Build 0)  -->
<!DOCTYPE svg PUBLIC "-//W3C//DTD SVG 1.0//EN" "http://www.w3.org/TR/2001/REC-SVG-20010904/DTD/svg10.dtd">
<svg version="1.0" id="Layer_1" xmlns="http://www.w3.org/2000/svg" xmlns:xlink="http://www.w3.org/1999/xlink" x="0px" y="0px"
	 width="100px" height="100px" viewBox="0 0 100 100" enable-background="new 0 0 100 100" xml:space="preserve">
<path fill="#8BC34A" d="M50,71.667c-5.067,0-9.167,4.102-9.167,9.167c0,5.064,4.1,9.166,9.167,9.166
	c5.059,0,9.167-4.102,9.167-9.166C59.167,75.769,55.059,71.667,50,71.667z M50,84.167c-1.842,0-3.333-1.491-3.333-3.333
	c0-1.843,1.491-3.334,3.333-3.334c1.839,0,3.334,1.491,3.334,3.334C53.334,82.676,51.839,84.167,50,84.167z"/>
<path fill="#8BC34A" d="M80.834,40.833c-5.067,0-9.167,4.108-9.167,9.167c0,5.062,4.1,9.167,9.167,9.167
	C85.9,59.167,90,55.062,90,50C90,44.941,85.9,40.833,80.834,40.833z M80.834,53.334c-1.843,0-3.334-1.493-3.334-3.334
	c0-1.839,1.491-3.333,3.334-3.333c1.842,0,3.333,1.494,3.333,3.333C84.167,51.841,82.676,53.334,80.834,53.334z"/>
<path fill="#263238" d="M82.951,58.911c-0.681,0.161-1.388,0.256-2.117,0.256c-1.646,0-3.187-0.438-4.521-1.197
	c-0.532,1.759-1.228,3.443-2.085,5.035c-3.074-0.843-6.494-0.098-8.906,2.317c-2.415,2.415-3.164,5.833-2.317,8.906
	c-1.593,0.858-3.277,1.554-5.035,2.086c0.758,1.335,1.197,2.874,1.197,4.52c0,0.73-0.095,1.437-0.256,2.118
	c2.867-0.775,5.589-1.903,8.107-3.355c3.53,2.171,8.206,1.748,11.266-1.313c3.058-3.057,3.48-7.73,1.314-11.263
	C81.049,64.503,82.177,61.78,82.951,58.911z M74.16,74.16c-1.302,1.302-3.411,1.302-4.715,0s-1.301-3.411,0-4.714
	c1.3-1.302,3.413-1.305,4.715,0C75.462,70.749,75.459,72.858,74.16,74.16z"/>
<path fill="#263238" d="M74.229,36.999c0.855,1.588,1.553,3.273,2.085,5.032c1.335-0.758,2.875-1.197,4.521-1.197
	c0.729,0,1.437,0.094,2.117,0.256c-0.774-2.871-1.903-5.59-3.353-8.107c2.167-3.532,1.743-8.206-1.314-11.267
	c-3.058-3.056-7.734-3.48-11.266-1.308c-2.518-1.454-5.238-2.58-8.105-3.355c0.161,0.68,0.256,1.386,0.256,2.115
	c0,1.646-0.439,3.186-1.196,4.52c1.759,0.533,3.442,1.229,5.032,2.084c-0.843,3.077-0.098,6.495,2.317,8.91
	C67.736,37.098,71.154,37.841,74.229,36.999z M69.445,30.557c-1.301-1.303-1.303-3.412,0-4.717c1.304-1.302,3.413-1.298,4.715,0
	c1.302,1.302,1.302,3.411,0,4.717C72.858,31.859,70.749,31.855,69.445,30.557z"/>
<path fill="#8BC34A" d="M19.167,40.833C14.1,40.833,10,44.941,10,50c0,5.062,4.1,9.167,9.167,9.167c5.066,0,9.167-4.105,9.167-9.167
	C28.333,44.941,24.233,40.833,19.167,40.833z M19.167,53.334c-1.843,0-3.333-1.493-3.333-3.334c0-1.839,1.491-3.333,3.333-3.333
	c1.842,0,3.333,1.494,3.333,3.333C22.5,51.841,21.009,53.334,19.167,53.334z"/>
<path fill="#8BC34A" d="M50,10c-5.068,0-9.168,4.108-9.168,9.167c0,5.065,4.1,9.167,9.168,9.167s9.169-4.098,9.169-9.167
	C59.169,14.108,55.068,10,50,10z M50,22.499c-1.842,0-3.333-1.491-3.333-3.332c0-1.839,1.491-3.333,3.333-3.333
	c1.843,0,3.334,1.494,3.334,3.333C53.334,21.009,51.843,22.499,50,22.499z"/>
<path fill="#263238" d="M42.028,23.687c-0.758-1.334-1.197-2.875-1.197-4.52c0-0.73,0.095-1.436,0.256-2.117
	c-2.87,0.773-5.592,1.902-8.109,3.352c-3.532-2.167-8.206-1.743-11.263,1.313c-3.062,3.061-3.479,7.73-1.313,11.264
	c-1.452,2.521-2.58,5.241-3.354,8.11c0.681-0.161,1.389-0.256,2.12-0.256c1.644,0,3.183,0.438,4.516,1.195
	c0.533-1.758,1.231-3.442,2.085-5.033c3.073,0.846,6.494,0.103,8.913-2.315c2.416-2.415,3.158-5.836,2.314-8.911
	C38.583,24.917,40.271,24.219,42.028,23.687z M30.554,30.557c-1.302,1.298-3.412,1.298-4.714,0c-1.302-1.303-1.302-3.416,0-4.717
	c1.302-1.298,3.412-1.298,4.714,0C31.855,27.142,31.855,29.254,30.554,30.557z"/>
<path fill="#263238" d="M40.833,80.834c0-1.646,0.438-3.186,1.196-4.521c-1.76-0.529-3.448-1.225-5.034-2.081
	c0.846-3.073,0.101-6.491-2.314-8.91c-2.416-2.415-5.837-3.16-8.913-2.314c-0.852-1.591-1.552-3.275-2.085-5.036
	c-1.333,0.757-2.873,1.195-4.517,1.195c-0.73,0-1.437-0.095-2.117-0.256c0.774,2.877,1.898,5.594,3.354,8.113
	c-2.168,3.529-1.745,8.203,1.312,11.26c3.06,3.063,7.731,3.48,11.26,1.315c2.521,1.448,5.242,2.576,8.113,3.352
	C40.928,82.271,40.833,81.563,40.833,80.834z M30.554,74.16c-1.302,1.302-3.412,1.302-4.714,0c-1.302-1.302-1.302-3.411,0-4.714
	c1.302-1.302,3.412-1.302,4.714,0C31.855,70.749,31.855,72.858,30.554,74.16z"/>
</svg>
